<svg width="32" height="32" viewBox="0 0 32 32" fill="none" xmlns="http://www.w3.org/2000/svg">
  <g id="Type=whatsapp-logo-fill">
    <path id="Vector"
      d="M16 3C13.7423 2.99983 11.5234 3.58766 9.56187 4.70562C7.60035 5.82357 5.9638 7.43311 4.81335 9.37575C3.6629 11.3184 3.03822 13.5272 3.00081 15.7846C2.9634 18.042 3.51456 20.2703 4.60001 22.25L3.53751 26C3.43839 26.3417 3.43282 26.7038 3.52138 27.0484C3.60993 27.393 3.78937 27.7075 4.04096 27.9591C4.29254 28.2106 4.60705 28.3901 4.95165 28.4786C5.29625 28.5672 5.6583 28.5616 6.00001 28.4625L9.75001 27.4C11.4879 28.3525 13.4205 28.8951 15.4002 28.9862C17.3798 29.0774 19.3541 28.7148 21.1722 27.926C22.9902 27.1373 24.6039 25.9433 25.8898 24.4354C27.1757 22.9275 28.0999 21.1456 28.5916 19.2258C29.0834 17.306 29.1297 15.2992 28.7271 13.3588C28.3244 11.4183 27.4835 9.59563 26.2685 8.02999C25.0535 6.46435 23.4967 5.19721 21.717 4.32542C19.9373 3.45363 17.9818 3.00027 16 3ZM19.0125 24H19C16.0815 23.9967 13.2836 22.835 11.2211 20.7701C9.15853 18.7052 8.00001 15.906 8.00001 12.9875C8.00332 11.7962 8.47889 10.6548 9.32244 9.8136C10.166 8.97238 11.3087 8.5 12.5 8.5C12.8275 8.50072 13.149 8.58776 13.4321 8.75235C13.7152 8.91694 13.9499 9.15327 14.1125 9.4375L15.575 12C15.7516 12.3069 15.8425 12.6556 15.8381 13.0097C15.8337 13.3637 15.7342 13.7101 15.55 14.0125L14.6625 15.5C15.1088 16.2588 15.7412 16.8913 16.5 17.3375L17.9875 16.45C18.2899 16.2658 18.6363 16.1663 18.9903 16.1619C19.3444 16.1575 19.6931 16.2484 20 16.425L22.5625 17.8875C22.8467 18.0501 23.0831 18.2848 23.2477 18.5679C23.4123 18.851 23.4993 19.1725 23.5 19.5C23.5 20.6913 23.0276 21.834 22.1864 22.6776C21.3452 23.5211 20.2038 23.9967 19.0125 24Z"
      fill="currentColor" />
    <path id="Vector_2"
      d="M17.0625 19.3375C16.9234 19.4188 16.7669 19.4658 16.6061 19.4745C16.4452 19.4832 16.2845 19.4534 16.1375 19.3875C14.5657 18.6908 13.3092 17.4343 12.6125 15.8625C12.5466 15.7155 12.5168 15.5548 12.5255 15.3939C12.5342 15.2331 12.5812 15.0766 12.6625 14.9375L13.8375 12.9875L12.425 10.5C11.7762 10.5163 11.1594 10.7856 10.7063 11.2503C10.2533 11.715 9.9998 12.3385 10 12.9875C9.99837 14.1704 10.2299 15.3421 10.6815 16.4355C11.1331 17.5289 11.7957 18.5225 12.6316 19.3595C13.4675 20.1966 14.4602 20.8606 15.553 21.3137C16.6457 21.7668 17.8171 22 19 22H19.0125C19.6615 22.0002 20.285 21.7467 20.7497 21.2937C21.2144 20.8406 21.4837 20.2238 21.5 19.575L19.0125 18.1625L17.0625 19.3375Z"
      fill="currentColor" />
  </g>
</svg>